REM DIRINDEX 1\2,1\3
REM DIRNAME folder01,folder02,folder03
TITLE ""
FILE "1941-1960.mp3" MP3
  TRACK 01 AUDIO
    TITLE "0:"
    INDEX 01 00:00:00
  TRACK 02 AUDIO
    TITLE "2:cjc039_2881"
    INDEX 01 00:00:27
  TRACK 03 AUDIO
    TITLE "0:"
    INDEX 01 00:01:32
  TRACK 04 AUDIO
    TITLE "3:cjc039_2882"
    INDEX 01 00:02:10
  TRACK 05 AUDIO
    TITLE "0:"
    INDEX 01 00:04:70
  TRACK 06 AUDIO
    TITLE "2:cjc039_2883"
    INDEX 01 00:06:49
  TRACK 07 AUDIO
    TITLE "0:"
    INDEX 01 00:08:13
  TRACK 08 AUDIO
    TITLE "3:cjc039_2884"
    INDEX 01 00:08:62
  TRACK 09 AUDIO
    TITLE "0:"
    INDEX 01 00:12:40
  TRACK 10 AUDIO
    TITLE "2:cjc039_2885"
    INDEX 01 00:14:13
  TRACK 11 AUDIO
    TITLE "0:"
    INDEX 01 00:15:32
  TRACK 12 AUDIO
    TITLE "3:cjc039_2886"
    INDEX 01 00:16:04
  TRACK 13 AUDIO
    TITLE "0:"
    INDEX 01 00:19:58
  TRACK 14 AUDIO
    TITLE "2:cjc039_2887"
    INDEX 01 00:21:35
  TRACK 15 AUDIO
    TITLE "0:"
    INDEX 01 00:22:68
  TRACK 16 AUDIO
    TITLE "3:cjc039_2888"
    INDEX 01 00:23:38
  TRACK 17 AUDIO
    TITLE "0:"
    INDEX 01 00:27:28
  TRACK 18 AUDIO
    TITLE "2:cjc039_2889"
    INDEX 01 00:28:74
  TRACK 19 AUDIO
    TITLE "0:"
    INDEX 01 00:30:16
  TRACK 20 AUDIO
    TITLE "3:cjc039_2890"
    INDEX 01 00:30:69
  TRACK 21 AUDIO
    TITLE "0:"
    INDEX 01 00:34:02
  TRACK 22 AUDIO
    TITLE "2:cjc039_2891"
    INDEX 01 00:35:51
  TRACK 23 AUDIO
    TITLE "0:"
    INDEX 01 00:36:70
  TRACK 24 AUDIO
    TITLE "3:cjc039_2892"
    INDEX 01 00:37:48
  TRACK 25 AUDIO
    TITLE "0:"
    INDEX 01 00:42:04
  TRACK 26 AUDIO
    TITLE "2:cjc039_2893"
    INDEX 01 00:43:52
  TRACK 27 AUDIO
    TITLE "0:"
    INDEX 01 00:44:65
  TRACK 28 AUDIO
    TITLE "3:cjc039_2894"
    INDEX 01 00:45:43
  TRACK 29 AUDIO
    TITLE "0:"
    INDEX 01 00:49:47
  TRACK 30 AUDIO
    TITLE "2:cjc039_2895"
    INDEX 01 00:51:22
  TRACK 31 AUDIO
    TITLE "0:"
    INDEX 01 00:52:39
  TRACK 32 AUDIO
    TITLE "3:cjc039_2896"
    INDEX 01 00:53:08
  TRACK 33 AUDIO
    TITLE "0:"
    INDEX 01 00:56:31
  TRACK 34 AUDIO
    TITLE "2:cjc039_2897"
    INDEX 01 00:58:07
  TRACK 35 AUDIO
    TITLE "0:"
    INDEX 01 00:59:22
  TRACK 36 AUDIO
    TITLE "3:cjc039_2898"
    INDEX 01 01:00:02
  TRACK 37 AUDIO
    TITLE "0:"
    INDEX 01 01:03:16
  TRACK 38 AUDIO
    TITLE "2:cjc039_2899"
    INDEX 01 01:04:70
  TRACK 39 AUDIO
    TITLE "0:"
    INDEX 01 01:06:40
  TRACK 40 AUDIO
    TITLE "3:cjc039_2900"
    INDEX 01 01:07:15
  TRACK 41 AUDIO
    TITLE "0:"
    INDEX 01 01:12:11
  TRACK 42 AUDIO
    TITLE "2:cjc039_2901"
    INDEX 01 01:13:63
  TRACK 43 AUDIO
    TITLE "0:"
    INDEX 01 01:14:68
  TRACK 44 AUDIO
    TITLE "3:cjc039_2902"
    INDEX 01 01:15:48
  TRACK 45 AUDIO
    TITLE "0:"
    INDEX 01 01:18:37
  TRACK 46 AUDIO
    TITLE "2:cjc039_2903"
    INDEX 01 01:20:12
  TRACK 47 AUDIO
    TITLE "0:"
    INDEX 01 01:21:27
  TRACK 48 AUDIO
    TITLE "3:cjc039_2904"
    INDEX 01 01:22:09
  TRACK 49 AUDIO
    TITLE "0:"
    INDEX 01 01:25:53
  TRACK 50 AUDIO
    TITLE "2:cjc039_2905"
    INDEX 01 01:27:34
  TRACK 51 AUDIO
    TITLE "0:"
    INDEX 01 01:28:41
  TRACK 52 AUDIO
    TITLE "3:cjc039_2906"
    INDEX 01 01:29:21
  TRACK 53 AUDIO
    TITLE "0:"
    INDEX 01 01:31:49
  TRACK 54 AUDIO
    TITLE "2:cjc039_2907"
    INDEX 01 01:33:29
  TRACK 55 AUDIO
    TITLE "0:"
    INDEX 01 01:34:54
  TRACK 56 AUDIO
    TITLE "3:cjc039_2908"
    INDEX 01 01:35:26
  TRACK 57 AUDIO
    TITLE "0:"
    INDEX 01 01:39:41
  TRACK 58 AUDIO
    TITLE "2:cjc039_2909"
    INDEX 01 01:41:16
  TRACK 59 AUDIO
    TITLE "0:"
    INDEX 01 01:42:31
  TRACK 60 AUDIO
    TITLE "3:cjc039_2910"
    INDEX 01 01:43:09
  TRACK 61 AUDIO
    TITLE "0:"
    INDEX 01 01:46:61
  TRACK 62 AUDIO
    TITLE "2:cjc039_2911"
    INDEX 01 01:48:34
  TRACK 63 AUDIO
    TITLE "0:"
    INDEX 01 01:50:02
  TRACK 64 AUDIO
    TITLE "3:cjc039_2912"
    INDEX 01 01:50:51
  TRACK 65 AUDIO
    TITLE "0:"
    INDEX 01 01:55:13
  TRACK 66 AUDIO
    TITLE "2:cjc039_2913"
    INDEX 01 01:56:63
  TRACK 67 AUDIO
    TITLE "0:"
    INDEX 01 01:57:53
  TRACK 68 AUDIO
    TITLE "3:cjc039_2914"
    INDEX 01 01:58:30
  TRACK 69 AUDIO
    TITLE "0:"
    INDEX 01 02:01:05
  TRACK 70 AUDIO
    TITLE "2:cjc039_2915"
    INDEX 01 02:02:54
  TRACK 71 AUDIO
    TITLE "0:"
    INDEX 01 02:04:19
  TRACK 72 AUDIO
    TITLE "3:cjc039_2916"
    INDEX 01 02:04:72
  TRACK 73 AUDIO
    TITLE "0:"
    INDEX 01 02:09:17
  TRACK 74 AUDIO
    TITLE "2:cjc039_2917"
    INDEX 01 02:10:65
  TRACK 75 AUDIO
    TITLE "0:"
    INDEX 01 02:11:74
  TRACK 76 AUDIO
    TITLE "3:cjc039_2918"
    INDEX 01 02:12:50
  TRACK 77 AUDIO
    TITLE "0:"
    INDEX 01 02:15:31
  TRACK 78 AUDIO
    TITLE "2:cjc039_2919"
    INDEX 01 02:17:08
  TRACK 79 AUDIO
    TITLE "0:"
    INDEX 01 02:18:25
  TRACK 80 AUDIO
    TITLE "3:cjc039_2920"
    INDEX 01 02:19:01
  TRACK 81 AUDIO
    TITLE "0:"
    INDEX 01 02:22:62
